<?xml version="1.0" encoding="utf-8"?>
<!-- Generator: Adobe Illustrator 21.0.0, SVG Export Plug-In . SVG Version: 6.00 Build 0)  -->
<!DOCTYPE svg PUBLIC "-//W3C//DTD SVG 1.1//EN" "http://www.w3.org/Graphics/SVG/1.1/DTD/svg11.dtd">
<svg version="1.1" xmlns="http://www.w3.org/2000/svg" xmlns:xlink="http://www.w3.org/1999/xlink" x="0px" y="0px"
	 viewBox="0 0 408.4 312" style="enable-background:new 0 0 408.4 312;" xml:space="preserve">
<style type="text/css">
	.st0{opacity:0.35;fill:url(#SVGID_1_);}
	.st1{fill:url(#SVGID_2_);}
	.st2{fill:url(#SVGID_3_);}
	.st3{fill:url(#SVGID_4_);}
	.st4{opacity:0.5;fill:url(#SVGID_5_);}
	.st5{fill:#58595B;}
</style>
<g id="Calque_1">
	<linearGradient id="SVGID_1_" gradientUnits="userSpaceOnUse" x1="352.8291" y1="156.0215" x2="386.667" y2="156.0215">
		<stop  offset="0" style="stop-color:#808285;stop-opacity:0"/>
		<stop  offset="1" style="stop-color:#808285"/>
	</linearGradient>
	<path class="st0" d="M352.8,312c18.7,0,33.8-69.9,33.8-156c0-86.2-15.1-156-33.8-156V312z"/>
	<g>
		<linearGradient id="SVGID_2_" gradientUnits="userSpaceOnUse" x1="104.4548" y1="196.2638" x2="104.4548" y2="108.7668">
			<stop  offset="0" style="stop-color:#4D4D4F"/>
			<stop  offset="1" style="stop-color:#6D6F71"/>
		</linearGradient>
		<path class="st1" d="M197.5,121.5c-0.3,4.5-1.8,8.4-3.9,14L176,184.6c-2.9,8.2-7.1,12.4-15.6,12.4c-9,0-12.1-4.7-15-13.2l-10-29.6
			l-10,29.6c-2.9,8.5-6,13.2-15,13.2c-8.5,0-12.7-4.2-15.6-12.4l-17.6-49.1c-0.3-0.8-0.6-1.5-0.8-2.3H65.7v77.6
			c0,9.2-5.5,13.8-13,13.8s-13-4.7-13-13.8v-77.6H25c-8.7,0-13.5-4.8-13.5-12.1c0-7.6,4.8-12.1,13.5-12.1h58.9
			c1.7,0,3.3,0.2,4.7,0.5c4.7,0.8,8.1,3.8,9.5,8.7l12.4,40.7l11.4-35.3c2.1-6.6,4.5-14.3,13.5-14.3c9,0,11.4,7.7,13.5,14.3
			l11.4,35.3l12.4-40.7c1.6-5.6,6-8.9,11.9-8.9C193.1,109.4,197.5,114.9,197.5,121.5z"/>
		
			<radialGradient id="SVGID_3_" cx="230.7815" cy="108.2582" r="64.5495" gradientTransform="matrix(1 0 0 1.0129 0 -1.3976)" gradientUnits="userSpaceOnUse">
			<stop  offset="0" style="stop-color:#A7CD45"/>
			<stop  offset="1" style="stop-color:#5EA34B"/>
		</radialGradient>
		<path class="st2" d="M216.6,72c8.2,0,15,6.6,15,15s-6.8,15-15,15c-8.2,0-15-6.6-15-15S208.4,72,216.6,72z M204,122.4
			c0-7.2,5.2-13,12.6-13c7.4,0,12.6,5.8,12.6,13v61.5c0,7.2-5.2,13-12.6,13c-7.4,0-12.6-5.8-12.6-13V122.4z"/>
		<linearGradient id="SVGID_4_" gradientUnits="userSpaceOnUse" x1="276.9634" y1="196.258" x2="276.9634" y2="108.7673">
			<stop  offset="0" style="stop-color:#4D4D4F"/>
			<stop  offset="1" style="stop-color:#6D6F71"/>
		</linearGradient>
		<path class="st3" d="M238,122.4c0-7.2,5.2-13,12.6-13c6.8,0,11,4.3,12.6,8.1c4-6.3,10.8-9.7,21.6-9.7c17.4,0,31.2,9,31.2,29.6
			v46.5c0,7.2-5.2,13-12.6,13s-12.6-5.8-12.6-13v-39.8c0-8.7-5.2-15.1-13.9-15.1c-8.7,0-13.9,6.4-13.9,15.1v39.8
			c0,7.2-5.2,13-12.6,13c-7.4,0-12.6-5.8-12.6-13V122.4z"/>
		<radialGradient id="SVGID_5_" cx="226.3533" cy="79.6821" r="48.3834" gradientUnits="userSpaceOnUse">
			<stop  offset="0" style="stop-color:#FFFFFF"/>
			<stop  offset="8.962709e-02" style="stop-color:#FFFFFF;stop-opacity:0.9104"/>
			<stop  offset="1" style="stop-color:#FFFFFF;stop-opacity:0"/>
		</radialGradient>
		<circle class="st4" cx="226.4" cy="79.7" r="48.4"/>
	</g>
</g>
<g id="Calque_3">
	<g>
		<g>
			<path class="st5" d="M118.7,232.7c-1.3-0.7-3-1.3-5.1-1.8c-1.8-0.4-3.1-0.8-4.1-1.1c-1-0.3-1.8-0.7-2.4-1.1
				c-0.6-0.5-0.9-1-0.9-1.7c0-0.8,0.4-1.4,1.2-1.9c0.8-0.5,1.8-0.8,3-0.8c1.2,0,2.1,0.2,2.8,0.6c0.7,0.4,1.3,0.9,1.8,1.6
				c0.6,0.8,1.2,1.4,1.7,1.8c0.5,0.4,1.1,0.6,1.8,0.6c1,0,1.7-0.2,2.2-0.7c0.5-0.5,0.8-1.1,0.8-1.9c0-0.7-0.2-1.4-0.7-2.2
				c-0.5-0.7-1.2-1.4-2.1-2c-0.9-0.6-2.1-1.1-3.5-1.5c-1.4-0.4-3-0.5-4.7-0.5c-2.2,0-4.1,0.4-5.7,1.1c-1.6,0.7-2.8,1.7-3.6,2.9
				c-0.8,1.2-1.2,2.5-1.2,3.8c0,1.5,0.4,2.8,1.3,3.8c0.9,1,2,1.9,3.5,2.5c1.5,0.6,3.3,1.2,5.7,1.8c2.1,0.5,3.5,1,4.4,1.6
				c0.9,0.5,1.3,1.4,1.3,2.6c0,0.8-0.4,1.5-1.3,2.1c-0.9,0.6-2,0.9-3.3,0.9c-1.7,0-3-0.3-3.9-0.9c-1-0.6-1.8-1.5-2.5-2.7
				c-0.3-0.6-0.7-1.1-1.1-1.5c-0.4-0.3-0.9-0.5-1.6-0.5c-0.8,0-1.5,0.3-2,0.8c-0.5,0.5-0.8,1.2-0.8,1.9c0,1.1,0.4,2.2,1.2,3.3
				c0.8,1.1,2.1,2,3.8,2.8c1.7,0.7,3.8,1.1,6.2,1.1c2.5,0,4.7-0.3,6.4-1c1.8-0.7,3.1-1.7,4-3c0.9-1.3,1.4-2.9,1.4-4.8
				c0-1.2-0.3-2.3-1-3.3C121.1,234.2,120.1,233.4,118.7,232.7z"/>
		</g>
		<g>
			<path class="st5" d="M224.4,210.2c-0.9,0-1.7,0.3-2.4,0.9c-0.7,0.6-1,1.4-1,2.4c0,1.1,0.3,1.9,1,2.4c0.7,0.6,1.5,0.9,2.4,0.9
				c0.9,0,1.7-0.3,2.3-0.9c0.7-0.6,1-1.4,1-2.4c0-1.1-0.3-1.9-1-2.4C226.1,210.5,225.3,210.2,224.4,210.2z"/>
		</g>
		<g>
			<path class="st5" d="M149.8,223.9c-1.1-1.2-2.5-2.1-4.1-2.7c-1.6-0.6-3.4-1-5.4-1c-2,0-3.8,0.3-5.4,0.9c-1.6,0.6-3,1.5-4.1,2.7
				c-1.1,1.2-2,2.6-2.6,4.2c-0.6,1.6-0.9,3.5-0.9,5.5c0,2,0.3,3.8,0.9,5.4c0.6,1.6,1.5,3,2.6,4.2c1.2,1.2,2.5,2.1,4.1,2.7
				c1.6,0.6,3.4,1,5.4,1c2,0,3.8-0.3,5.4-0.9c1.6-0.6,3-1.5,4.1-2.7s2-2.6,2.6-4.2c0.6-1.6,0.9-3.5,0.9-5.4c0-2-0.3-3.8-0.9-5.4
				C151.8,226.5,150.9,225.1,149.8,223.9z M145.4,240.2c-1.3,1.6-3,2.4-5.1,2.4c-1.4,0-2.7-0.4-3.7-1.1c-1-0.7-1.9-1.8-2.4-3.2
				c-0.5-1.4-0.8-2.9-0.8-4.7c0-1.8,0.3-3.4,0.8-4.8c0.6-1.4,1.4-2.5,2.4-3.2c1.1-0.7,2.3-1.1,3.7-1.1c2.1,0,3.9,0.8,5.1,2.4
				c1.3,1.6,1.9,3.8,1.9,6.6C147.3,236.4,146.6,238.6,145.4,240.2z"/>
			<path class="st5" d="M162.3,210.2c-0.9,0-1.6,0.3-2.2,0.9c-0.5,0.6-0.8,1.6-0.8,2.8v29.2c0,1.2,0.3,2.2,0.8,2.8
				c0.6,0.6,1.3,0.9,2.1,0.9c0.9,0,1.6-0.3,2.2-0.9c0.6-0.6,0.9-1.6,0.9-2.8V214c0-1.3-0.3-2.2-0.8-2.8
				C163.9,210.5,163.2,210.2,162.3,210.2z"/>
			<path class="st5" d="M193.1,220.2c-0.9,0-1.6,0.3-2.2,0.9c-0.6,0.6-0.8,1.5-0.8,2.8v8.2c0,3.3-0.2,5.4-0.6,6.4
				c-0.5,1.2-1.3,2.1-2.3,2.8c-1.1,0.7-2.2,1.1-3.4,1.1c-1.3,0-2.3-0.3-3-1c-0.7-0.6-1.2-1.5-1.5-2.7c-0.3-1.1-0.4-2.4-0.4-4v-10.8
				c0-1.2-0.3-2.2-0.8-2.8c-0.6-0.6-1.3-0.9-2.2-0.9c-0.9,0-1.6,0.3-2.2,0.9c-0.5,0.6-0.8,1.5-0.8,2.8v13.3c0,2.6,0.4,4.6,1.2,6
				c0.7,1.1,1.6,2,2.9,2.7c1.2,0.6,2.7,1,4.2,1c1.3,0,2.5-0.2,3.5-0.5c1-0.3,1.9-0.8,2.8-1.5c0.9-0.7,1.7-1.5,2.5-2.5l0.6-0.8v1.9
				c0,1.1,0.3,2,0.8,2.6c0.5,0.6,1.2,0.9,2,0.9c0.8,0,1.5-0.3,2-0.8c0.5-0.6,0.8-1.5,0.8-2.6v-19.5c0-1.3-0.3-2.2-0.8-2.8
				C194.7,220.5,194,220.2,193.1,220.2z"/>
			<path class="st5" d="M216.4,242c-0.4,0-0.9,0.1-1.5,0.2c-0.7,0.1-1.3,0.2-1.7,0.2c-0.8,0-1.4-0.2-1.8-0.6
				c-0.4-0.4-0.6-0.9-0.7-1.6c-0.1-0.6-0.1-1.4-0.1-2.5V225h1.6c1.3,0,2.2-0.2,2.9-0.5c0.6-0.3,0.9-0.8,0.9-1.6
				c0-0.6-0.2-1.1-0.6-1.5c-0.4-0.4-1.1-0.6-1.9-0.6h-2.8v-4.9c0-1.1-0.1-2-0.2-2.6c-0.1-0.5-0.4-1-0.8-1.4
				c-0.6-0.6-1.3-0.9-2.1-0.9c-0.5,0-1,0.1-1.5,0.4c-0.4,0.3-0.8,0.6-1,1c-0.2,0.4-0.4,0.9-0.4,1.4c-0.1,0.6-0.1,1.4-0.1,2.5v4.4
				h-1.1c-0.9,0-1.6,0.2-2.1,0.6c-0.5,0.4-0.7,0.9-0.7,1.5c0,0.6,0.2,1.1,0.6,1.5c0.4,0.4,1.1,0.6,2,0.6h1.2v13.3
				c0,2,0.2,3.7,0.5,4.9c0.3,1.2,1,2.1,2,2.7c1,0.7,2.6,1,4.6,1c2.2,0,3.8-0.3,4.9-0.8c1.1-0.5,1.6-1.2,1.6-2.2c0-0.5-0.2-1-0.5-1.4
				C217.3,242.2,216.9,242,216.4,242z"/>
			<path class="st5" d="M224.3,220.2c-0.9,0-1.6,0.3-2.1,0.9c-0.6,0.6-0.8,1.5-0.8,2.8v19.3c0,1.2,0.3,2.2,0.8,2.8
				c0.6,0.6,1.3,0.9,2.1,0.9c0.9,0,1.6-0.3,2.2-0.9c0.6-0.6,0.9-1.6,0.9-2.8v-19.5c0-1.1-0.3-2-0.9-2.6
				C226,220.5,225.2,220.2,224.3,220.2z"/>
			<path class="st5" d="M256,223.9c-1.1-1.2-2.5-2.1-4.1-2.7c-1.6-0.6-3.4-1-5.4-1c-2,0-3.8,0.3-5.4,0.9c-1.6,0.6-3,1.5-4.1,2.7
				c-1.1,1.2-2,2.6-2.6,4.2c-0.6,1.6-0.9,3.5-0.9,5.5c0,2,0.3,3.8,0.9,5.4c0.6,1.6,1.5,3,2.6,4.2c1.2,1.2,2.5,2.1,4.1,2.7
				c1.6,0.6,3.4,1,5.4,1c2,0,3.8-0.3,5.4-0.9c1.6-0.6,3-1.5,4.1-2.7c1.1-1.2,2-2.6,2.6-4.2c0.6-1.6,0.9-3.5,0.9-5.4
				c0-2-0.3-3.8-0.9-5.4C258,226.5,257.2,225.1,256,223.9z M251.6,240.2c-1.3,1.6-3,2.4-5.1,2.4c-1.4,0-2.7-0.4-3.7-1.1
				c-1-0.7-1.9-1.8-2.4-3.2c-0.5-1.4-0.8-2.9-0.8-4.7c0-1.8,0.3-3.4,0.8-4.8c0.6-1.4,1.4-2.5,2.4-3.2c1.1-0.7,2.3-1.1,3.7-1.1
				c2.1,0,3.9,0.8,5.1,2.4c1.3,1.6,1.9,3.8,1.9,6.6C253.5,236.4,252.9,238.6,251.6,240.2z"/>
			<path class="st5" d="M287.6,224.5c-0.7-1.4-1.7-2.4-3-3.1c-1.3-0.7-2.9-1.1-4.6-1.1c-1.8,0-3.3,0.4-4.7,1.1
				c-1.4,0.7-2.6,1.8-3.8,3.3l-0.6,0.8v-1.9c0-0.7-0.1-1.4-0.4-1.9c-0.3-0.5-0.6-0.9-1-1.1c-0.4-0.2-0.9-0.4-1.4-0.4
				c-0.9,0-1.5,0.3-2,0.8c-0.5,0.6-0.8,1.5-0.8,2.6v19.5c0,1.2,0.3,2.2,0.8,2.8c0.6,0.6,1.3,0.9,2.1,0.9c0.9,0,1.6-0.3,2.2-0.9
				c0.6-0.6,0.9-1.6,0.9-2.8v-8.4c0-2.8,0.2-4.7,0.5-5.7c0.5-1.3,1.3-2.4,2.3-3.1c1-0.8,2.2-1.1,3.5-1.1c2,0,3.3,0.7,4,2
				c0.6,1.2,1,3,1,5.3v11.2c0,1.2,0.3,2.2,0.8,2.8c0.6,0.6,1.3,0.9,2.2,0.9c0.9,0,1.6-0.3,2.1-0.9c0.6-0.6,0.8-1.6,0.8-2.8v-12.5
				c0-1.5-0.1-2.7-0.2-3.6C288.3,226.1,288,225.3,287.6,224.5z"/>
			<path class="st5" d="M313.2,233c-1.3-0.7-3-1.3-5-1.8c-1.8-0.4-3.2-0.8-4.2-1.1c-1-0.3-1.9-0.7-2.5-1.2c-0.7-0.5-1-1.2-1-2
				c0-0.9,0.5-1.6,1.4-2.2c0.9-0.6,1.9-0.8,3.2-0.8c1.2,0,2.2,0.2,3,0.6c0.7,0.4,1.4,1,1.9,1.7c0.6,0.8,1.1,1.3,1.6,1.7
				c0.4,0.3,0.9,0.5,1.5,0.5c0.9,0,1.5-0.2,2-0.6c0.4-0.4,0.7-1,0.7-1.6c0-0.6-0.2-1.3-0.7-2c-0.5-0.7-1.1-1.3-2-1.9
				c-0.9-0.6-2-1.1-3.4-1.4c-1.4-0.4-2.9-0.5-4.6-0.5c-2.2,0-4,0.3-5.5,1c-1.5,0.7-2.7,1.6-3.4,2.7c-0.8,1.1-1.1,2.4-1.1,3.6
				c0,1.4,0.4,2.6,1.2,3.6c0.8,1,2,1.8,3.4,2.4c1.4,0.6,3.3,1.2,5.6,1.8c2.1,0.5,3.6,1,4.5,1.6c1,0.6,1.5,1.6,1.5,2.9
				c0,0.9-0.5,1.7-1.4,2.3c-0.9,0.6-2.1,1-3.5,1c-1.7,0-3.1-0.3-4.1-0.9c-1-0.6-1.9-1.6-2.6-2.8c-0.3-0.6-0.7-1.1-1-1.4
				c-0.3-0.3-0.8-0.4-1.4-0.4c-0.7,0-1.3,0.2-1.7,0.7c-0.5,0.5-0.7,1-0.7,1.6c0,1,0.4,2.1,1.2,3.1c0.8,1.1,2,1.9,3.7,2.7
				c1.7,0.7,3.7,1.1,6.1,1.1c2.5,0,4.6-0.3,6.3-1c1.7-0.7,3-1.6,3.8-2.9c0.9-1.3,1.3-2.8,1.3-4.6c0-1.2-0.3-2.2-1-3.1
				C315.4,234.5,314.4,233.6,313.2,233z"/>
		</g>
	</g>
</g>
</svg>
